# xmcd
#
# Track frame offsets:
#	150
#	17280
#	30345
#	47320
#	59105
#	80290
#	96990
#	113370
#	134575
#	152715
#	170745
#	193905
#	208055
#	229550
#	246415
#	268985
#	290225
#
# Disc length: 4135 seconds
#
# Revision: 0
# Processed by: cddbd v1.4PL0 Copyright (c) Steve Scherf et al.
# Submitted via: dBpowerAMP V4.0
#
DISCID=f2102511
DTITLE=Various Artist - Good Morning Blues
DYEAR=1900
DGENRE=Blues
TTITLE0=Track01 My Little Mama
TTITLE1=Track02 Mess Around
TTITLE2=Track03 Under The Boardwalk
TTITLE3=Track04 The Big Question
TTITLE4=Track05 Everybody Wants To To To Heaven
TTITLE5=Track06 Never Make A Move Too Soon
TTITLE6=Track07 Honest I Do
TTITLE7=Track08 Woke Up This Morning
TTITLE8=Track09 Hard Times
TTITLE9=Track10 Route 66
TTITLE10=Track11 Wine
TTITLE11=Track12 Ain´t That A Shame
TTITLE12=Track13 Summertime
TTITLE13=Track14 Baby What Do You Want Me To Do
TTITLE14=Track15 Need Your Love So Bad
TTITLE15=Track16 Min Egen Kvinna/I Got A Woman
TTITLE16=Track17 En Handfull Blues/You Came A Long Way From S.T.Louis
EXTD=
EXTT0=
EXTT1=
EXTT2=
EXTT3=
EXTT4=
EXTT5=
EXTT6=
EXTT7=
EXTT8=
EXTT9=
EXTT10=
EXTT11=
EXTT12=
EXTT13=
EXTT14=
EXTT15=
EXTT16=
PLAYORDER=
